<svg width="47" height="34" viewBox="0 0 47 34" fill="none" xmlns="http://www.w3.org/2000/svg">
<path d="M39.8543 15.964C40.5699 15.4026 41.1321 14.7009 41.541 13.8588C41.9499 13.0166 42.1543 12.1465 42.1543 11.2482C42.1543 9.56402 41.6432 8.16051 40.621 7.0377C39.5988 5.91489 38.3721 5.35349 36.941 5.35349C35.5099 5.35349 34.2832 5.91489 33.261 7.0377C32.2388 8.16051 31.7277 9.56402 31.7277 11.2482C31.7277 12.1465 31.9065 13.0166 32.2643 13.8588C32.6221 14.7009 33.1588 15.4026 33.8743 15.964C32.7499 16.4131 31.7277 17.0307 30.8077 17.8167C29.581 16.6938 28.1499 15.8517 26.5143 15.2903C27.5365 14.7289 28.3288 13.8868 28.891 12.764C29.4532 11.6412 29.7343 10.4061 29.7343 9.05875C29.7343 7.0377 29.0954 5.32542 27.8177 3.92191C26.5399 2.5184 24.981 1.81665 23.141 1.81665C21.301 1.81665 19.7165 2.5184 18.3877 3.92191C17.0588 5.32542 16.3943 7.0377 16.3943 9.05875C16.3943 10.4061 16.701 11.6412 17.3143 12.764C17.9277 13.8868 18.6943 14.7289 19.6143 15.2903C18.081 15.8517 16.701 16.6938 15.4743 17.8167C14.5543 16.9184 13.5321 16.3009 12.4077 15.964C13.1232 15.4026 13.6599 14.7009 14.0177 13.8588C14.3754 13.0166 14.5543 12.1465 14.5543 11.2482C14.5543 9.56402 14.0432 8.16051 13.021 7.0377C11.9988 5.91489 10.7721 5.35349 9.34099 5.35349C7.90988 5.35349 6.68321 5.91489 5.66099 7.0377C4.63877 8.16051 4.12766 9.56402 4.12766 11.2482C4.12766 12.1465 4.3321 13.0166 4.74099 13.8588C5.14988 14.7009 5.66099 15.4026 6.27432 15.964C4.53655 16.6377 3.07988 17.8447 1.90432 19.5851C0.728769 21.3254 0.140991 23.2623 0.140991 25.3956V26.2377H11.3343C11.2321 26.7991 11.181 27.3605 11.181 27.9219V28.5956C11.181 30.0552 11.6665 31.2903 12.6377 32.3009C13.6088 33.3114 14.7588 33.8167 16.0877 33.8167H30.1943C31.5232 33.8167 32.6477 33.3114 33.5677 32.3009C34.4877 31.2903 34.9477 30.0552 34.9477 28.5956V27.9219C34.9477 27.3605 34.9477 26.7991 34.9477 26.2377L46.141 26.0693V25.3956C46.141 23.2623 45.5532 21.3254 44.3777 19.5851C43.2021 17.8447 41.6943 16.6377 39.8543 15.964ZM33.1077 11.0798C33.1077 9.957 33.491 9.00261 34.2577 8.21665C35.0243 7.43069 35.9188 7.0377 36.941 7.0377C37.9632 7.0377 38.8577 7.43069 39.6243 8.21665C40.391 9.00261 40.7743 9.98507 40.7743 11.164C40.7743 12.343 40.391 13.3254 39.6243 14.1114C38.8577 14.8974 37.9632 15.2903 36.941 15.2903H36.7877C35.7654 15.2903 34.8965 14.8974 34.181 14.1114C33.4654 13.3254 33.1077 12.3149 33.1077 11.0798ZM17.9277 9.05875C17.9277 7.48682 18.4388 6.13946 19.461 5.01665C20.4832 3.89384 21.7099 3.33244 23.141 3.33244C24.5721 3.33244 25.7732 3.89384 26.7443 5.01665C27.7154 6.13946 28.201 7.48682 28.201 9.05875C28.201 10.6307 27.741 11.95 26.821 13.0166C25.901 14.0833 24.7765 14.6728 23.4477 14.7851H22.8343C21.4032 14.6728 20.2277 14.0833 19.3077 13.0166C18.3877 11.95 17.9277 10.6307 17.9277 9.05875ZM5.50766 11.0798C5.50766 9.957 5.89099 9.00261 6.65766 8.21665C7.42432 7.43069 8.31877 7.0377 9.34099 7.0377C10.3632 7.0377 11.2577 7.43069 12.0243 8.21665C12.791 9.00261 13.1743 9.98507 13.1743 11.164C13.1743 12.343 12.8165 13.3254 12.101 14.1114C11.3854 14.8974 10.4654 15.2903 9.34099 15.2903H9.18766C8.16544 15.2903 7.29655 14.8974 6.58099 14.1114C5.86544 13.3254 5.50766 12.3149 5.50766 11.0798ZM11.4877 24.5535H1.67432C1.87877 22.4202 2.69655 20.6237 4.12766 19.164C5.55877 17.7044 7.29655 16.9745 9.34099 16.9745C11.2832 16.9745 12.9699 17.6482 14.401 18.9956C12.9699 20.5675 11.9988 22.4202 11.4877 24.5535ZM33.5677 28.5956C33.5677 29.6061 33.2354 30.4763 32.571 31.2061C31.9065 31.9359 31.1143 32.3009 30.1943 32.3009H16.0877C15.1677 32.3009 14.3754 31.9359 13.711 31.2061C13.0465 30.4763 12.7143 29.6061 12.7143 28.5956V27.9219C12.7143 25.7886 13.1488 23.8798 14.0177 22.1956C14.8865 20.5114 16.1132 19.1359 17.6977 18.0693C19.2821 17.0026 20.9943 16.4693 22.8343 16.4693H23.4477C25.2877 16.4693 26.9743 17.0026 28.5077 18.0693C30.041 19.1359 31.2677 20.5114 32.1877 22.1956C33.1077 23.8798 33.5677 25.7886 33.5677 27.9219V28.5956ZM34.641 24.5535C34.1299 22.4202 33.2099 20.5675 31.881 18.9956C33.3121 17.6482 34.9477 16.9745 36.7877 16.9745H36.941C38.9854 16.9745 40.7232 17.7044 42.1543 19.164C43.5854 20.6237 44.4032 22.4202 44.6077 24.5535H34.641Z" fill="white"/>
</svg>
