<svg width="40" height="44" viewBox="0 0 40 44" fill="none" xmlns="http://www.w3.org/2000/svg">
<path d="M29.1233 34.1834C28.9322 34.1834 28.765 34.2551 28.6216 34.3984C28.4783 34.5417 28.4066 34.7328 28.4066 34.9717C28.4066 35.2106 28.4783 35.4256 28.6216 35.6167C28.765 35.8078 28.9561 35.9034 29.195 35.9034C29.4339 35.9034 29.625 35.8078 29.7683 35.6167C29.9116 35.4256 29.9833 35.2106 29.9833 34.9717C29.9833 34.7328 29.9116 34.5417 29.7683 34.3984C29.625 34.2551 29.41 34.1834 29.1233 34.1834ZM31.2733 31.4601L27.26 30.1701L25.8266 27.3034C27.1644 25.8701 27.9766 24.2456 28.2633 22.4301L28.55 21.2834H29.9833C30.7478 21.2834 31.3689 21.0445 31.8466 20.5667C32.3244 20.0889 32.5633 19.5156 32.5633 18.8467V13.5434C32.5633 11.2501 31.99 9.14783 30.8433 7.23672C29.6966 5.32561 28.1678 3.79672 26.2566 2.65005C24.3455 1.50339 22.2433 0.930054 19.95 0.930054C17.6566 0.930054 15.5544 1.50339 13.6433 2.65005C11.7322 3.79672 10.2033 5.32561 9.05664 7.23672C7.90998 9.14783 7.33664 11.2501 7.33664 13.5434V18.8467C7.33664 19.3245 7.50386 19.8023 7.83831 20.2801C8.17275 20.7578 8.57886 21.0445 9.05664 21.1401V22.1434C9.05664 22.9078 9.29553 23.5289 9.77331 24.0067C10.2511 24.4845 10.8244 24.7234 11.4933 24.7234H12.3533C12.64 25.4878 13.07 26.2045 13.6433 26.8734L14.0733 27.3034L12.64 30.1701L8.62664 31.4601C6.33331 32.2245 4.4222 33.7056 2.89331 35.9034C1.36442 38.1012 0.599976 40.4901 0.599976 43.0701C0.599976 43.3567 0.695531 43.5717 0.886642 43.7151C1.07775 43.8584 1.26886 43.9301 1.45998 43.9301H38.44C38.6311 43.9301 38.8222 43.8584 39.0133 43.7151C39.2044 43.5717 39.3 43.3567 39.3 43.0701C39.3 40.4901 38.5355 38.1012 37.0066 35.9034C35.4778 33.7056 33.5666 32.2245 31.2733 31.4601ZM30.8433 18.8467C30.8433 19.0378 30.7716 19.2289 30.6283 19.4201C30.485 19.6112 30.27 19.7067 29.9833 19.7067H28.6933C28.98 17.9867 29.1233 16.2667 29.1233 14.5467V14.4034H30.8433V18.8467ZM9.91664 19.7067C9.62998 19.7067 9.41498 19.6112 9.27164 19.4201C9.12831 19.2289 9.05664 19.0378 9.05664 18.8467V14.4034H10.7766V14.6901C10.7766 16.3145 10.92 17.9867 11.2066 19.7067H9.91664ZM11.4933 23.0034C11.3022 23.0034 11.135 22.9317 10.9916 22.7884C10.8483 22.6451 10.7766 22.4301 10.7766 22.1434V21.2834H11.35L11.6366 23.0034H11.4933ZM10.7766 12.6834H9.05664C9.24775 10.8678 9.82109 9.17172 10.7766 7.59505C11.7322 6.01839 13.0222 4.80005 14.6466 3.94006C16.2711 3.08006 18.0389 2.65005 19.95 2.65005C21.8611 2.65005 23.605 3.08006 25.1816 3.94006C26.7583 4.80005 28.0483 6.01839 29.0516 7.59505C30.055 9.17172 30.6522 10.8678 30.8433 12.6834H29.1233C29.1233 11.1545 28.7411 9.74506 27.9766 8.45506C27.2122 7.16505 26.185 6.13783 24.895 5.37339C23.605 4.60894 22.1955 4.22672 20.6666 4.22672H19.2333C17.7044 4.22672 16.295 4.60894 15.005 5.37339C13.715 6.13783 12.6878 7.16505 11.9233 8.45506C11.1589 9.74506 10.7766 11.1545 10.7766 12.6834ZM19.2333 5.94672H20.6666C22.5778 5.94672 24.2022 6.61561 25.54 7.95339C26.8778 9.29116 27.5466 10.9156 27.5466 12.8267V13.5434L26.4 13.4001C23.4378 12.9223 20.9055 11.6323 18.8033 9.53006C18.7078 9.4345 18.5166 9.38672 18.23 9.38672C17.0833 9.38672 16.0083 9.62561 15.005 10.1034C14.0016 10.5812 13.1655 11.2501 12.4966 12.1101C12.5922 10.3901 13.285 8.93283 14.575 7.73839C15.865 6.54394 17.4178 5.94672 19.2333 5.94672ZM13.5 23.0034C13.2133 22.3345 12.9744 21.1401 12.7833 19.4201C12.5922 17.7001 12.4966 16.1712 12.4966 14.8334L13.5 13.4001C14.0733 12.6356 14.7422 12.0623 15.5066 11.6801C16.2711 11.2978 17.0833 11.0589 17.9433 10.9634C20.2366 13.2567 23.0078 14.5945 26.2566 14.9767L27.4033 15.2634C27.3078 16.9834 27.1644 18.6556 26.9733 20.2801L26.6866 22.1434C26.4 23.4812 25.8028 24.6995 24.895 25.7984C23.9872 26.8973 22.9361 27.5901 21.7416 27.8767C20.5472 28.1634 19.3766 28.1634 18.23 27.8767C16.51 27.3989 15.1722 26.3478 14.2166 24.7234H15.9366C16.1278 25.2012 16.4383 25.6073 16.8683 25.9417C17.2983 26.2762 17.7522 26.4434 18.23 26.4434H19.95C20.6189 26.4434 21.2161 26.1806 21.7416 25.6551C22.2672 25.1295 22.53 24.5323 22.53 23.8634C22.53 23.1945 22.2672 22.5973 21.7416 22.0717C21.2161 21.5462 20.6189 21.2834 19.95 21.2834H18.23C17.7522 21.2834 17.2983 21.4506 16.8683 21.7851C16.4383 22.1195 16.1278 22.5256 15.9366 23.0034H13.5ZM18.23 29.5967C18.8033 29.6923 19.3528 29.7401 19.8783 29.7401C20.4039 29.7401 20.9055 29.6923 21.3833 29.5967L19.8066 31.1734L18.23 29.5967ZM18.66 32.4634L16.08 35.1867C15.3155 33.8489 14.6466 32.4156 14.0733 30.8867L15.0766 28.8801L18.66 32.4634ZM24.68 28.5934L25.8266 30.8867C25.2533 32.4156 24.5844 33.8489 23.82 35.1867L21.0966 32.4634L24.68 28.5934ZM17.37 23.8634C17.37 23.6723 17.4655 23.4812 17.6566 23.2901C17.8478 23.0989 18.0389 23.0034 18.23 23.0034H19.95C20.1411 23.0034 20.3322 23.0989 20.5233 23.2901C20.7144 23.4812 20.81 23.6723 20.81 23.8634C20.81 24.0545 20.7144 24.2456 20.5233 24.4367C20.3322 24.6278 20.1411 24.7234 19.95 24.7234H18.23C18.0389 24.7234 17.8478 24.6278 17.6566 24.4367C17.4655 24.2456 17.37 24.0545 17.37 23.8634ZM2.31998 42.2101C2.51109 40.1078 3.22775 38.2206 4.46998 36.5484C5.7122 34.8762 7.28886 33.7056 9.19998 33.0367L12.64 31.8901C13.3089 33.7056 14.1211 35.4256 15.0766 37.0501C15.7455 38.2923 16.51 39.4867 17.37 40.6334L18.3733 42.2101H2.31998ZM19.95 41.4934L18.8033 39.6301C18.1344 38.6745 17.5133 37.7189 16.94 36.7634L19.8066 33.6101L22.96 36.7634C22.3866 37.7189 21.7655 38.6745 21.0966 39.6301L19.95 41.4934ZM21.5266 42.2101L22.53 40.6334C23.39 39.4867 24.1544 38.2923 24.8233 37.0501C25.7789 35.4256 26.5911 33.7056 27.26 31.8901L30.7 33.0367C32.6111 33.7056 34.1878 34.8762 35.43 36.5484C36.6722 38.2206 37.3889 40.1078 37.58 42.2101H21.5266ZM35 38.9134C34.4266 37.7667 33.6622 36.7634 32.7066 35.9034C32.5155 35.8078 32.3005 35.7839 32.0616 35.8317C31.8228 35.8795 31.6316 35.9751 31.4883 36.1184C31.345 36.2617 31.2972 36.4528 31.345 36.6917C31.3928 36.9306 31.4644 37.1456 31.56 37.3367C32.42 37.9101 33.0889 38.6745 33.5666 39.6301C33.6622 39.8212 33.8055 39.9645 33.9966 40.0601C34.1878 40.1556 34.4028 40.1317 34.6416 39.9884C34.8805 39.8451 35.0239 39.6778 35.0716 39.4867C35.1194 39.2956 35.0955 39.1045 35 38.9134Z" fill="#2494E4"/>
</svg>
