<svg width="40" height="34" viewBox="0 0 40 34" fill="none" xmlns="http://www.w3.org/2000/svg">
<path id="Vector" d="M36.9633 0.56665H2.64331C2.05665 0.56665 1.56776 0.786652 1.17665 1.22665C0.785537 1.66665 0.589981 2.17999 0.589981 2.76665V26.0867C0.589981 26.6733 0.785537 27.1622 1.17665 27.5533C1.56776 27.9444 2.05665 28.14 2.64331 28.14H15.55L14.5233 32.2467H11.59C11.2966 32.2467 11.0766 32.3689 10.93 32.6133C10.7833 32.8578 10.7833 33.0778 10.93 33.2733C11.0766 33.4689 11.2966 33.5667 11.59 33.5667H28.0166C28.31 33.5667 28.53 33.4689 28.6766 33.2733C28.8233 33.0778 28.8233 32.8578 28.6766 32.6133C28.53 32.3689 28.31 32.2467 28.0166 32.2467H25.0833L24.0566 28.14H36.9633C37.55 28.14 38.0389 27.9444 38.43 27.5533C38.8211 27.1622 39.0166 26.6733 39.0166 26.0867V2.76665C39.0166 2.17999 38.8211 1.6911 38.43 1.29998C38.0389 0.908875 37.55 0.713318 36.9633 0.713318V0.56665ZM2.64331 2.03332H36.9633C37.1589 2.03332 37.33 2.10665 37.4766 2.25332C37.6233 2.39998 37.6966 2.5711 37.6966 2.76665V23.3H1.90998V2.76665C1.90998 2.5711 1.98331 2.39998 2.12998 2.25332C2.27665 2.10665 2.44776 2.03332 2.64331 2.03332ZM23.7633 32.2467H15.8433L16.87 28.14H22.7366L23.7633 32.2467ZM36.9633 26.82H2.64331C2.44776 26.82 2.27665 26.7467 2.12998 26.6C1.98331 26.4533 1.90998 26.2822 1.90998 26.0867V24.7667H37.6966V26.0867C37.6966 26.2822 37.6233 26.4533 37.4766 26.6C37.33 26.7467 37.1589 26.82 36.9633 26.82ZM13.6433 20.5133H25.9633C26.2566 20.5133 26.4766 20.3667 26.6233 20.0733C26.77 19.78 26.6966 19.5355 26.4033 19.34L19.3633 13.0333L26.4033 6.72665C26.6966 6.43332 26.77 6.13998 26.6233 5.84665C26.4766 5.55332 26.2566 5.40665 25.9633 5.40665H13.6433C13.4478 5.40665 13.2766 5.47998 13.13 5.62665C12.9833 5.77332 12.91 5.94443 12.91 6.13998V19.9267C12.91 20.1222 12.9833 20.2689 13.13 20.3667C13.2766 20.4644 13.4478 20.5133 13.6433 20.5133ZM24.2033 19.1933H14.3766V17.4333L18.19 13.9133L24.2033 19.1933ZM14.3766 15.6733V12.0067L20.0966 6.87332H24.2033L14.3766 15.6733ZM18.0433 6.87332L14.3766 10.1V6.87332H18.0433Z" fill="#1363DF"/>
</svg>
