<svg width="45" height="38" viewBox="0 0 45 38" fill="none" xmlns="http://www.w3.org/2000/svg">
<path id="Vector" d="M37.12 0.659874C35.4578 0.659874 34.04 1.24654 32.8666 2.41988C31.6933 3.59321 31.1066 5.03543 31.1066 6.74654C31.1066 8.45765 31.6933 9.87543 32.8666 10.9999C34.04 12.1243 35.4578 12.6865 37.12 12.6865C38.7822 12.6865 40.2244 12.0999 41.4466 10.9265C42.6689 9.75321 43.28 8.33543 43.28 6.67321C43.28 5.01099 42.6933 3.59321 41.52 2.41988C40.3466 1.24654 38.88 0.659874 37.12 0.659874ZM37.12 11.3665C35.8489 11.3665 34.7489 10.9021 33.82 9.97321C32.8911 9.04432 32.4266 7.94432 32.4266 6.67321C32.4266 5.4021 32.8911 4.3021 33.82 3.37321C34.7489 2.44432 35.8733 1.97987 37.1933 1.97987C38.5133 1.97987 39.6378 2.44432 40.5666 3.37321C41.4955 4.3021 41.96 5.42654 41.96 6.74654C41.96 8.06654 41.4955 9.16654 40.5666 10.0465C39.6378 10.9265 38.4889 11.3665 37.12 11.3665ZM39.0266 7.69987C39.0266 7.6021 39.0266 7.55321 39.0266 7.55321L38.5866 6.81987L36.68 5.79321L36.5333 5.20654L36.8266 4.76654C36.9244 4.66876 36.9733 4.61987 36.9733 4.61987H37.2666L38.44 4.91321L38.5866 3.73988L37.7066 3.59321L37.56 2.85987H36.68V3.59321L36.24 3.73988L35.9466 4.03321L35.6533 4.32654L35.36 4.91321V5.35321L35.5066 6.08654L36.24 6.81987L37.12 7.25987L37.7066 7.69987L37.8533 8.28654L37.7066 8.43321L37.4133 8.57987L36.5333 8.72654L35.36 8.28654L35.2133 9.45987L35.36 9.60654C35.4578 9.50876 35.5555 9.50876 35.6533 9.60654L36.68 9.75321V10.6332H37.7066V9.75321L38.44 9.45987L38.7333 9.16654L39.0266 8.43321V7.69987ZM34.3333 13.5665C34.1378 13.371 33.9666 13.2732 33.82 13.2732C33.6733 13.2732 33.5022 13.3221 33.3066 13.4199L26.56 18.6999L17.9066 15.1799C17.7111 15.0821 17.5155 15.0821 17.32 15.1799L7.93331 21.9265C7.83554 22.0243 7.7622 22.1465 7.71331 22.2932C7.66442 22.4399 7.68887 22.611 7.78665 22.8065C7.88442 23.0021 8.03109 23.0999 8.22665 23.0999C8.4222 23.0999 8.56887 23.051 8.66665 22.9532L17.76 16.4999L26.4133 20.1665C26.7066 20.2643 26.9511 20.2154 27.1466 20.0199L34.1866 14.4465C34.2844 14.3488 34.3578 14.2021 34.4066 14.0065C34.4555 13.811 34.4311 13.6643 34.3333 13.5665ZM44.0133 36.2999H40.9333V17.0865C40.9333 16.891 40.86 16.7199 40.7133 16.5732C40.5666 16.4265 40.3955 16.3532 40.2 16.3532H34.1866C33.9911 16.3532 33.82 16.4265 33.6733 16.5732C33.5266 16.7199 33.4533 16.891 33.4533 17.0865V36.2999H31.2533V23.6865C31.2533 23.491 31.18 23.3443 31.0333 23.2465C30.8866 23.1488 30.7155 23.0999 30.52 23.0999H24.36C24.2622 23.0999 24.14 23.1488 23.9933 23.2465C23.8466 23.3443 23.7733 23.491 23.7733 23.6865V36.2999H21.5733V22.6599C21.5733 22.4643 21.5 22.3177 21.3533 22.2199C21.2066 22.1221 21.0355 22.0732 20.84 22.0732H14.8266C14.6311 22.0732 14.46 22.1221 14.3133 22.2199C14.1666 22.3177 14.0933 22.4643 14.0933 22.6599V36.2999H11.8933V26.6199C11.8933 26.4243 11.82 26.2532 11.6733 26.1065C11.5266 25.9599 11.3555 25.8865 11.16 25.8865H4.99998C4.80442 25.8865 4.65776 25.9599 4.55998 26.1065C4.4622 26.2532 4.41331 26.4243 4.41331 26.6199V36.2999H1.33331C1.13776 36.2999 0.966647 36.3488 0.81998 36.4465C0.673314 36.5443 0.59998 36.691 0.59998 36.8865C0.59998 37.0821 0.673314 37.2532 0.81998 37.3999C0.966647 37.5465 1.13776 37.6199 1.33331 37.6199H43.8666C44.0622 37.6199 44.2333 37.5465 44.38 37.3999C44.5266 37.2532 44.6 37.1065 44.6 36.9599C44.6 36.8132 44.5511 36.6665 44.4533 36.5199C44.3555 36.3732 44.2089 36.2999 44.0133 36.2999ZM10.4266 36.2999H5.73331V27.2065H10.4266V36.2999ZM20.2533 36.2999H15.4133V23.3932H20.2533V36.2999ZM29.9333 36.2999H25.0933V24.4199H29.9333V36.2999ZM39.6133 36.2999H34.7733V17.6732H39.6133V36.2999Z" fill="#1363DF"/>
</svg>
