<svg width="42" height="43" viewBox="0 0 42 43" fill="none" xmlns="http://www.w3.org/2000/svg">
<path id="Vector" d="M1.77331 21.7865C1.57775 21.5909 1.33331 21.5665 1.03998 21.7132C0.746642 21.8598 0.599976 22.0798 0.599976 22.3732V41.5865C0.599976 41.782 0.673309 41.9532 0.819976 42.0998C0.966642 42.2465 1.13775 42.3198 1.33331 42.3198H20.5466C20.84 42.3198 21.06 42.1732 21.2066 41.8798C21.3533 41.5865 21.3289 41.342 21.1333 41.1465L1.77331 21.7865ZM2.06664 40.8532V23.9865L18.9333 40.8532H2.06664ZM5.43998 38.0665H11.0133C11.3066 38.1643 11.5022 38.0665 11.6 37.7732C11.6978 37.4798 11.6489 37.1865 11.4533 36.8932L6.02664 31.4665C5.73331 31.2709 5.43998 31.222 5.14664 31.3198C4.85331 31.4176 4.70664 31.6132 4.70664 31.9065V37.4798C4.80442 37.6754 4.9022 37.822 4.99998 37.9198C5.09775 38.0176 5.24442 38.0665 5.43998 38.0665ZM6.17331 33.6665L9.25331 36.7465H6.17331V33.6665ZM8.22664 3.74649H9.54664V5.06649H8.22664V3.74649ZM11.0133 3.74649H12.3333V5.06649H11.0133V3.74649ZM13.6533 3.74649H15.12V5.06649H13.6533V3.74649ZM14.8266 13.4265C14.5333 13.5243 14.3866 13.7198 14.3866 14.0132V21.6398C14.3866 21.9332 14.5333 22.1287 14.8266 22.2265L20.9866 25.0132C21.1822 25.1109 21.3778 25.1109 21.5733 25.0132L27.7333 22.2265C28.0266 22.1287 28.1733 21.9332 28.1733 21.6398V14.0132C28.1733 13.7198 28.0266 13.5243 27.7333 13.4265L21.5733 10.6398C21.3778 10.6398 21.1822 10.6398 20.9866 10.6398L14.8266 13.4265ZM20.5466 23.3998L15.8533 21.1998V15.1865L20.5466 17.2398V23.3998ZM26.8533 21.1998L22.0133 23.3998V17.2398L26.8533 15.1865V21.1998ZM21.28 12.1065L25.8266 14.0132L21.28 16.0665L16.7333 14.0132L21.28 12.1065ZM20.5466 27.0665H22.0133V30.5865H20.5466V27.0665ZM20.5466 5.79982H22.0133V9.31982H20.5466V5.79982ZM9.25331 12.6932L9.83998 11.3732L12.7733 12.8398L12.1866 14.0132L9.25331 12.6932ZM29.7866 12.6932L32.72 11.3732L33.3066 12.6932L30.3733 14.0132L29.7866 12.6932ZM9.25331 23.6932L12.1866 22.3732L12.7733 23.6932L9.83998 25.0132L9.25331 23.6932ZM41.2266 32.6398H37.12V21.9332L41.08 17.8265C41.6666 17.3376 41.96 16.7265 41.96 15.9932C41.96 15.2598 41.6911 14.6487 41.1533 14.1598C40.6155 13.6709 39.98 13.4265 39.2466 13.4265C38.5133 13.4265 37.9022 13.6709 37.4133 14.1598L37.12 14.4532V8.58649C37.12 8.39094 37.0222 8.24427 36.8266 8.14649L30.08 1.25316C29.8844 1.0576 29.6889 0.959827 29.4933 0.959827H8.22664C7.44442 0.959827 6.78442 1.22871 6.24664 1.76649C5.70886 2.30427 5.43998 2.96427 5.43998 3.74649V23.6932H6.90664V3.74649C6.90664 3.35538 7.02886 3.03761 7.27331 2.79316C7.51775 2.54871 7.83553 2.42649 8.22664 2.42649H28.9066V6.53316C28.9066 7.31538 29.1755 7.97538 29.7133 8.51316C30.2511 9.05094 30.8622 9.31982 31.5466 9.31982H35.6533V15.9198L24.9466 26.6265C24.8489 26.7243 24.8 26.8709 24.8 27.0665L24.0666 30.4398C23.9689 30.6354 24.0178 30.8309 24.2133 31.0265C24.4089 31.222 24.6044 31.3198 24.8 31.3198L28.32 30.5865C28.4178 30.5865 28.5155 30.5376 28.6133 30.4398L35.6533 23.2532V32.6398H22.0133C21.8178 32.6398 21.6466 32.7132 21.5 32.8598C21.3533 33.0065 21.28 33.1776 21.28 33.3732V35.4265H17.9066V36.7465H21.28V38.7998C21.28 38.9954 21.3533 39.1665 21.5 39.3132C21.6466 39.4598 21.8178 39.5332 22.0133 39.5332H41.2266C41.4222 39.5332 41.5933 39.4598 41.74 39.3132C41.8866 39.1665 41.96 38.9954 41.96 38.7998V33.3732C41.96 33.1776 41.8866 33.0065 41.74 32.8598C41.5933 32.7132 41.4222 32.6398 41.2266 32.6398ZM30.2266 6.53316V3.30649L34.7733 7.85316H31.5466C31.1555 7.85316 30.8378 7.73094 30.5933 7.48649C30.3489 7.24205 30.2266 6.92427 30.2266 6.53316ZM26.4133 27.0665L37.12 16.3598L38.88 18.2665L28.1733 28.9732L26.4133 27.0665ZM39.32 14.7465C39.8089 14.7465 40.1755 15.0154 40.42 15.5532C40.6644 16.0909 40.5911 16.5554 40.2 16.9465L39.9066 17.2398L38 15.4798L38.44 15.1865C38.6355 14.8932 38.9289 14.7465 39.32 14.7465ZM25.8266 28.5332L26.7066 29.4132L25.5333 29.7065L25.8266 28.5332ZM40.4933 38.0665H22.6V33.9598H24.0666V35.4265H25.3866V33.9598H26.8533V35.4265H28.1733V33.9598H29.4933V35.4265H30.96V33.9598H32.28V35.4265H33.6V33.9598H35.0666V35.4265H36.3866V33.9598H37.8533V35.4265H39.1733V33.9598H40.4933V38.0665Z" fill="#1363DF"/>
</svg>
