<svg width="36" height="23" viewBox="0 0 36 23" fill="none" xmlns="http://www.w3.org/2000/svg">
<path id="Vector" d="M14.5045 5.94975L24.9622 6.44137L29.2291 1.5336L11.9672 0.253451L0.439397 13.1654L17.7422 14.5469L24.0519 7.39876L14.4267 6.92455L14.5045 5.94975ZM29.061 11.6247C29.1975 11.9626 29.4319 12.202 29.764 12.343C30.0961 12.484 30.4311 12.4862 30.769 12.3497C31.1069 12.2131 31.3294 11.9857 31.4366 11.6672C31.5438 11.3488 31.5291 11.0206 31.3926 10.6827C31.2561 10.3448 31.0386 10.0985 30.7403 9.94388C30.442 9.78926 30.1239 9.78021 29.786 9.91673C29.4481 10.0533 29.2087 10.2876 29.0677 10.6197C28.9267 10.9518 28.9245 11.2868 29.061 11.6247ZM28.9105 9.20917C29.2211 9.00506 29.5252 8.88219 29.8229 8.84056L28.9218 6.61037L24.9622 6.44137L24.0519 7.39876L28.2552 7.58721L28.9105 9.20917ZM32.1298 12.5074C31.8738 12.8466 31.5431 13.0982 31.1376 13.262C30.7321 13.4258 30.3194 13.4746 29.8996 13.4084L31.8952 20.9745L35.8487 19.3771L32.1298 12.5074ZM24.6038 8.47289L18.1927 15.662L6.73875 14.7475L9.85149 22.4518L10.0952 22.4712C13.9958 23.1751 17.5004 22.899 20.6092 21.643C23.7179 20.3869 26.4307 18.151 28.7477 14.9351L28.9094 14.7518L26.3701 8.46677L24.6038 8.47289Z" fill="white"/>
</svg>
