<svg width="40" height="45" viewBox="0 0 40 45" fill="none" xmlns="http://www.w3.org/2000/svg">
<path d="M17.2983 9.6731L8.98275 21.3648L0.0818413 21.8142L13.3026 2.11905L36.9756 0.610923L23.8295 20.436L10.785 21.1931L18.4152 10.4137L17.2983 9.6731ZM11.1046 30.1686C11.3534 30.6017 11.4134 31.0568 11.2845 31.5342C11.1556 32.0115 10.8746 32.3746 10.4416 32.6234C10.0086 32.8723 9.57505 32.9198 9.14103 32.766C8.70701 32.6122 8.36556 32.3188 8.1167 31.8858C7.86783 31.4528 7.78621 31.01 7.87182 30.5576C7.95743 30.1052 8.21674 29.7545 8.64977 29.5057C9.08279 29.2568 9.53797 29.1968 10.0153 29.3257C10.4926 29.4546 10.8557 29.7356 11.1046 30.1686ZM8.62737 27.9632C8.14457 28.1254 7.75485 28.3494 7.4582 28.6351L5.81569 25.7772L8.98275 21.3648L10.785 21.1931L7.43282 25.8847L8.62737 27.9632ZM9.46057 34.2241C10.0429 34.2351 10.5939 34.0912 11.1135 33.7926C11.6332 33.494 12.0348 33.0903 12.3185 32.5816L18.7885 41.1331L13.7221 44.0449L9.46057 34.2241ZM11.4764 22.6967L24.6508 21.865L33.3531 8.74135L39.0272 18.6143L38.8421 18.8935C36.3017 23.6947 33.0395 27.24 29.0557 29.5295C25.0719 31.8191 20.3663 32.8529 14.9391 32.6309L14.6046 32.6503L9.97572 24.596L11.4764 22.6967Z" fill="#9B51E0"/>
</svg>
