<svg width="13" height="17" viewBox="0 0 13 17" fill="none" xmlns="http://www.w3.org/2000/svg">
<path id="Vector" d="M10.4133 6.84651H2.89331C2.8222 6.84651 2.76886 6.87318 2.73331 6.92651C2.69775 6.97984 2.67998 7.04207 2.67998 7.11318C2.67998 7.18429 2.69775 7.23762 2.73331 7.27318C2.76886 7.30873 2.8222 7.32651 2.89331 7.32651H10.4133C10.4844 7.32651 10.5466 7.30873 10.6 7.27318C10.6533 7.23762 10.68 7.18429 10.68 7.11318C10.68 7.04207 10.6533 6.97984 10.6 6.92651C10.5466 6.87318 10.4844 6.84651 10.4133 6.84651ZM10.4133 4.81984H2.89331C2.8222 4.81984 2.76886 4.84651 2.73331 4.89984C2.69775 4.95318 2.67998 5.0154 2.67998 5.08651C2.67998 5.15762 2.69775 5.21984 2.73331 5.27318C2.76886 5.32651 2.8222 5.35318 2.89331 5.35318H10.4133C10.4844 5.35318 10.5466 5.32651 10.6 5.27318C10.6533 5.21984 10.68 5.15762 10.68 5.08651C10.68 5.0154 10.6533 4.95318 10.6 4.89984C10.5466 4.84651 10.4844 4.81984 10.4133 4.81984ZM10.4133 8.81984H2.89331C2.8222 8.81984 2.76886 8.84651 2.73331 8.89984C2.69775 8.95318 2.67998 9.0154 2.67998 9.08651C2.67998 9.15762 2.69775 9.21984 2.73331 9.27318C2.76886 9.32651 2.8222 9.35318 2.89331 9.35318H10.4133C10.4844 9.35318 10.5466 9.32651 10.6 9.27318C10.6533 9.21984 10.68 9.15762 10.68 9.08651C10.68 9.0154 10.6533 8.95318 10.6 8.89984C10.5466 8.84651 10.4844 8.81984 10.4133 8.81984ZM10.4133 10.8465H2.89331C2.8222 10.8465 2.76886 10.8732 2.73331 10.9265C2.69775 10.9798 2.67998 11.0421 2.67998 11.1132C2.67998 11.1843 2.69775 11.2376 2.73331 11.2732C2.76886 11.3087 2.8222 11.3265 2.89331 11.3265H10.4133C10.4844 11.3265 10.5466 11.3087 10.6 11.2732C10.6533 11.2376 10.68 11.1843 10.68 11.1132C10.68 11.0421 10.6533 10.9798 10.6 10.9265C10.5466 10.8732 10.4844 10.8465 10.4133 10.8465ZM8.38664 12.8198H2.89331C2.8222 12.8198 2.76886 12.8465 2.73331 12.8998C2.69775 12.9532 2.67998 13.0154 2.67998 13.0865C2.67998 13.1576 2.69775 13.2198 2.73331 13.2732C2.76886 13.3265 2.8222 13.3532 2.89331 13.3532H8.38664C8.45775 13.3532 8.51998 13.3265 8.57331 13.2732C8.62664 13.2198 8.65331 13.1576 8.65331 13.0865C8.65331 13.0154 8.62664 12.9532 8.57331 12.8998C8.51998 12.8465 8.45775 12.8198 8.38664 12.8198ZM12.6 3.43318C12.5644 3.43318 12.0489 2.9354 11.0533 1.93984L9.50664 0.393177C9.47109 0.357621 9.32887 0.339844 9.07998 0.339844H1.87998C1.52442 0.339844 1.2222 0.464288 0.973309 0.713177C0.72442 0.962066 0.599976 1.26429 0.599976 1.61984V15.1132C0.599976 15.4332 0.72442 15.7176 0.973309 15.9665C1.2222 16.2154 1.52442 16.3398 1.87998 16.3398H11.3733C11.7289 16.3398 12.0222 16.2154 12.2533 15.9665C12.4844 15.7176 12.6 15.4332 12.6 15.1132V4.01984C12.6 3.66429 12.6 3.48651 12.6 3.48651V3.43318ZM11.7466 3.32651H9.61331V1.19318L11.7466 3.32651ZM11.3733 15.8598H1.87998C1.66664 15.8598 1.48886 15.7798 1.34664 15.6198C1.20442 15.4598 1.13331 15.291 1.13331 15.1132V1.61984C1.13331 1.40651 1.20442 1.21984 1.34664 1.05984C1.48886 0.899843 1.66664 0.819843 1.87998 0.819843H9.13331V3.59318C9.13331 3.66429 9.15998 3.72651 9.21331 3.77984C9.26664 3.83318 9.32887 3.85984 9.39998 3.85984H12.12V15.1132C12.12 15.291 12.0489 15.4598 11.9066 15.6198C11.7644 15.7798 11.5866 15.8598 11.3733 15.8598Z" fill="#39557E"/>
</svg>
