<svg width="42" height="42" viewBox="0 0 42 42" fill="none" xmlns="http://www.w3.org/2000/svg">
<path id="Vector" d="M18.4833 2.45316C18.3855 2.35538 18.3366 2.20871 18.3366 2.01316C18.3366 1.8176 18.3855 1.67094 18.4833 1.57316L19.6566 0.693161C20.1455 0.302048 20.6833 0.106491 21.27 0.106491C21.8566 0.106491 22.3944 0.302048 22.8833 0.693161L24.0566 1.57316C24.1544 1.67094 24.2033 1.8176 24.2033 2.01316C24.2033 2.20871 24.1544 2.37983 24.0566 2.52649C23.9589 2.67316 23.8122 2.74649 23.6166 2.74649C23.4211 2.74649 23.2744 2.69761 23.1766 2.59983L22.0033 1.71983C21.8077 1.52427 21.5633 1.42649 21.27 1.42649C20.9766 1.42649 20.7322 1.52427 20.5366 1.71983L19.3633 2.59983C19.2655 2.69761 19.1189 2.74649 18.9233 2.74649C18.7277 2.74649 18.5811 2.64872 18.4833 2.45316ZM41.95 18.4398V37.7998C41.95 38.7776 41.6077 39.6087 40.9233 40.2932C40.2389 40.9776 39.4077 41.3198 38.43 41.3198H4.10997C3.13219 41.3198 2.30108 40.9776 1.61663 40.2932C0.932188 39.6087 0.589966 38.7776 0.589966 37.7998V18.4398C0.589966 17.3643 1.02997 16.4843 1.90997 15.7998L2.93663 14.9198C3.13219 14.822 3.3033 14.7732 3.44997 14.7732C3.59663 14.7732 3.7433 14.8465 3.88997 14.9932C4.03663 15.1398 4.10997 15.3109 4.10997 15.5065C4.10997 15.702 4.01219 15.8487 3.81663 15.9465L2.49663 17.2665L20.5366 32.6665C20.7322 32.862 20.9766 32.9598 21.27 32.9598C21.5633 32.9598 21.8077 32.862 22.0033 32.6665L40.0433 17.2665L38.7233 15.9465C38.5277 15.8487 38.43 15.702 38.43 15.5065C38.43 15.3109 38.5033 15.1398 38.65 14.9932C38.7966 14.8465 38.9433 14.7732 39.09 14.7732C39.2366 14.7732 39.4077 14.822 39.6033 14.9198L40.63 15.7998C41.51 16.4843 41.95 17.3643 41.95 18.4398ZM40.4833 37.7998V18.7332L28.6033 28.8532L40.19 38.8265C40.3855 38.5332 40.4833 38.1909 40.4833 37.7998ZM13.9366 28.8532L2.05663 18.7332V37.7998C2.05663 38.1909 2.15441 38.5332 2.34997 38.8265L13.9366 28.8532ZM38.43 39.8532C38.7233 39.8532 38.9677 39.8043 39.1633 39.7065L27.5766 29.7332L22.8833 33.8398C22.3944 34.2309 21.8566 34.4265 21.27 34.4265C20.6833 34.4265 20.1455 34.2309 19.6566 33.8398L14.9633 29.7332L3.37663 39.7065C3.57219 39.8043 3.81663 39.8532 4.10997 39.8532H38.43ZM6.1633 18.4398C6.35885 18.4398 6.52997 18.3665 6.67663 18.2198C6.8233 18.0732 6.89663 17.902 6.89663 17.7065V7.58649C6.89663 6.99982 7.09219 6.51094 7.4833 6.11983C7.87441 5.72871 8.3633 5.53316 8.94997 5.53316H33.59C34.1766 5.53316 34.6655 5.72871 35.0566 6.11983C35.4477 6.51094 35.6433 6.99982 35.6433 7.58649V17.7065C35.6433 17.902 35.7166 18.0732 35.8633 18.2198C36.01 18.3665 36.1811 18.4398 36.3766 18.4398C36.5722 18.4398 36.7433 18.3665 36.89 18.2198C37.0366 18.0732 37.11 17.902 37.11 17.7065V7.58649C37.11 6.60872 36.7677 5.80205 36.0833 5.16649C35.3989 4.53094 34.5677 4.16427 33.59 4.06649H8.94997C7.97219 4.16427 7.14108 4.53094 6.45663 5.16649C5.77219 5.80205 5.42997 6.60872 5.42997 7.58649V17.7065C5.42997 17.902 5.5033 18.0732 5.64997 18.2198C5.79663 18.3665 5.96774 18.4398 6.1633 18.4398ZM13.6433 22.6932V19.0265C12.7633 18.7332 12.0544 18.1465 11.5166 17.2665C10.9789 16.3865 10.8077 15.4576 11.0033 14.4798C11.1989 13.502 11.6877 12.6709 12.47 11.9865C13.2522 11.302 14.1322 10.9598 15.11 10.9598H17.1633C19.0211 10.9598 20.5855 10.5687 21.8566 9.78649C22.6389 9.39538 23.1766 8.95538 23.47 8.46649C23.6655 8.27094 23.91 8.22205 24.2033 8.31982C24.4966 8.4176 24.6433 8.61316 24.6433 8.90649V13.0132H25.3766C25.9633 13.0132 26.4522 13.2332 26.8433 13.6732C27.2344 14.1132 27.43 14.602 27.43 15.1398C27.43 15.6776 27.2344 16.1665 26.8433 16.6065C26.4522 17.0465 25.9633 17.2665 25.3766 17.2665H24.6433V21.3732C24.6433 21.6665 24.4966 21.862 24.2033 21.9598C23.91 22.0576 23.6411 21.9354 23.3966 21.5932C23.1522 21.2509 22.7366 20.8843 22.15 20.4932C20.8789 19.8087 19.4611 19.4176 17.8966 19.3198V22.6932C17.8966 23.2798 17.6766 23.7687 17.2366 24.1598C16.7966 24.5509 16.3077 24.7465 15.77 24.7465C15.2322 24.7465 14.7433 24.5509 14.3033 24.1598C13.8633 23.7687 13.6433 23.2798 13.6433 22.6932ZM24.6433 14.4798V15.7998H25.3766C25.5722 15.7998 25.7433 15.7265 25.89 15.5798C26.0366 15.4332 26.11 15.2865 26.11 15.1398C26.11 14.9932 26.0366 14.8465 25.89 14.6998C25.7433 14.5532 25.5722 14.4798 25.3766 14.4798H24.6433ZM16.43 22.6932V19.3198H15.11V22.6932C15.11 22.8887 15.1833 23.0598 15.33 23.2065C15.4766 23.3532 15.6233 23.4265 15.77 23.4265C15.9166 23.4265 16.0633 23.3532 16.21 23.2065C16.3566 23.0598 16.43 22.8887 16.43 22.6932ZM17.8966 12.4265V17.8532C19.8522 17.9509 21.6611 18.5865 23.3233 19.7598V10.5198C21.6611 11.6932 19.8522 12.3287 17.8966 12.4265ZM15.11 17.8532H16.43V12.4265H15.11C14.3277 12.4265 13.6677 12.6954 13.13 13.2332C12.5922 13.7709 12.3233 14.4065 12.3233 15.1398C12.3233 15.8732 12.5922 16.5087 13.13 17.0465C13.6677 17.5843 14.3277 17.8532 15.11 17.8532ZM30.95 14.4798H29.4833C29.2877 14.4798 29.1411 14.5532 29.0433 14.6998C28.9455 14.8465 28.8966 14.9932 28.8966 15.1398C28.8966 15.2865 28.9455 15.4332 29.0433 15.5798C29.1411 15.7265 29.2877 15.7998 29.4833 15.7998H30.95C31.1455 15.7998 31.2922 15.7265 31.39 15.5798C31.4877 15.4332 31.5366 15.2865 31.5366 15.1398C31.5366 14.9932 31.4877 14.8465 31.39 14.6998C31.2922 14.5532 31.1455 14.4798 30.95 14.4798ZM29.7766 17.2665C29.5811 17.1687 29.3611 17.1932 29.1166 17.3398C28.8722 17.4865 28.7744 17.682 28.8233 17.9265C28.8722 18.1709 28.9944 18.342 29.19 18.4398L30.6566 19.1732C30.7544 19.2709 30.9011 19.2954 31.0966 19.2465C31.2922 19.1976 31.4389 19.0754 31.5366 18.8798C31.6344 18.6843 31.6344 18.5132 31.5366 18.3665C31.4389 18.2198 31.3411 18.0976 31.2433 17.9998L29.7766 17.2665ZM29.4833 13.0132C29.5811 13.0132 29.6789 13.0132 29.7766 13.0132L31.2433 12.2798C31.3411 12.182 31.4389 12.0598 31.5366 11.9132C31.6344 11.7665 31.6344 11.5954 31.5366 11.3998C31.4389 11.2043 31.2922 11.082 31.0966 11.0332C30.9011 10.9843 30.7544 11.0087 30.6566 11.1065L29.19 11.8398C28.8966 11.9376 28.7989 12.1576 28.8966 12.4998C28.9944 12.842 29.19 13.0132 29.4833 13.0132Z" fill="#1363DF"/>
</svg>
