<svg width="31" height="41" viewBox="0 0 31 41" fill="none" xmlns="http://www.w3.org/2000/svg">
<path d="M24.6333 17.0967H5.83331C5.65553 17.0967 5.5222 17.1634 5.43331 17.2967C5.34442 17.4301 5.29998 17.5856 5.29998 17.7634C5.29998 17.9412 5.34442 18.0745 5.43331 18.1634C5.5222 18.2523 5.65553 18.2967 5.83331 18.2967H24.6333C24.8111 18.2967 24.9666 18.2523 25.1 18.1634C25.2333 18.0745 25.3 17.9412 25.3 17.7634C25.3 17.5856 25.2333 17.4301 25.1 17.2967C24.9666 17.1634 24.8111 17.0967 24.6333 17.0967ZM24.6333 12.0301H5.83331C5.65553 12.0301 5.5222 12.0967 5.43331 12.2301C5.34442 12.3634 5.29998 12.519 5.29998 12.6967C5.29998 12.8745 5.34442 13.0301 5.43331 13.1634C5.5222 13.2967 5.65553 13.3634 5.83331 13.3634H24.6333C24.8111 13.3634 24.9666 13.2967 25.1 13.1634C25.2333 13.0301 25.3 12.8745 25.3 12.6967C25.3 12.519 25.2333 12.3634 25.1 12.2301C24.9666 12.0967 24.8111 12.0301 24.6333 12.0301ZM24.6333 22.0301H5.83331C5.65553 22.0301 5.5222 22.0967 5.43331 22.2301C5.34442 22.3634 5.29998 22.519 5.29998 22.6967C5.29998 22.8745 5.34442 23.0301 5.43331 23.1634C5.5222 23.2967 5.65553 23.3634 5.83331 23.3634H24.6333C24.8111 23.3634 24.9666 23.2967 25.1 23.1634C25.2333 23.0301 25.3 22.8745 25.3 22.6967C25.3 22.519 25.2333 22.3634 25.1 22.2301C24.9666 22.0967 24.8111 22.0301 24.6333 22.0301ZM24.6333 27.0967H5.83331C5.65553 27.0967 5.5222 27.1634 5.43331 27.2967C5.34442 27.4301 5.29998 27.5856 5.29998 27.7634C5.29998 27.9412 5.34442 28.0745 5.43331 28.1634C5.5222 28.2523 5.65553 28.2967 5.83331 28.2967H24.6333C24.8111 28.2967 24.9666 28.2523 25.1 28.1634C25.2333 28.0745 25.3 27.9412 25.3 27.7634C25.3 27.5856 25.2333 27.4301 25.1 27.2967C24.9666 27.1634 24.8111 27.0967 24.6333 27.0967ZM19.5666 32.0301H5.83331C5.65553 32.0301 5.5222 32.0967 5.43331 32.2301C5.34442 32.3634 5.29998 32.519 5.29998 32.6967C5.29998 32.8745 5.34442 33.0301 5.43331 33.1634C5.5222 33.2967 5.65553 33.3634 5.83331 33.3634H19.5666C19.7444 33.3634 19.9 33.2967 20.0333 33.1634C20.1666 33.0301 20.2333 32.8745 20.2333 32.6967C20.2333 32.519 20.1666 32.3634 20.0333 32.2301C19.9 32.0967 19.7444 32.0301 19.5666 32.0301ZM30.1 8.56341C30.0111 8.56341 28.7222 7.31897 26.2333 4.83008L22.3666 0.963409C22.2778 0.874519 21.9222 0.830074 21.3 0.830074H3.29998C2.41109 0.830074 1.65553 1.14119 1.03331 1.76341C0.411087 2.38563 0.0999756 3.14119 0.0999756 4.03008V37.7634C0.0999756 38.5634 0.411087 39.2745 1.03331 39.8967C1.65553 40.519 2.41109 40.8301 3.29998 40.8301H27.0333C27.9222 40.8301 28.6555 40.519 29.2333 39.8967C29.8111 39.2745 30.1 38.5634 30.1 37.7634V10.0301C30.1 9.14119 30.1 8.69674 30.1 8.69674V8.56341ZM27.9666 8.29674H22.6333V2.96341L27.9666 8.29674ZM27.0333 39.6301H3.29998C2.76664 39.6301 2.3222 39.4301 1.96664 39.0301C1.61109 38.6301 1.43331 38.2079 1.43331 37.7634V4.03008C1.43331 3.49674 1.61109 3.03008 1.96664 2.63008C2.3222 2.23008 2.76664 2.03008 3.29998 2.03008H21.4333V8.96341C21.4333 9.14119 21.5 9.29674 21.6333 9.43008C21.7666 9.56341 21.9222 9.63008 22.1 9.63008H28.9V37.7634C28.9 38.2079 28.7222 38.6301 28.3666 39.0301C28.0111 39.4301 27.5666 39.6301 27.0333 39.6301Z" fill="#219653"/>
</svg>
