<svg width="37" height="37" viewBox="0 0 37 37" fill="none" xmlns="http://www.w3.org/2000/svg">
<path id="Vector" d="M29.2901 23.3C28.5701 22.5 27.7301 22.1 26.7701 22.1C25.8101 22.1 24.9301 22.5 24.1301 23.3L21.7301 25.7L20.4101 24.98C18.1701 23.54 16.0901 21.62 14.1701 19.22C13.2101 18.1 12.5301 17.02 12.1301 15.98L14.5301 13.7C15.3301 12.9 15.7301 12.02 15.7301 11.06C15.7301 10.1 15.3301 9.21998 14.5301 8.41998L10.3301 4.21998C9.53014 3.41998 8.67014 3.01998 7.75014 3.01998C6.83014 3.01998 5.97014 3.41998 5.17014 4.21998L2.53014 6.85998C1.57014 7.81998 1.01014 8.97998 0.850142 10.34C0.770142 12.02 1.13014 13.9 1.93014 15.98C3.13014 19.26 5.05014 22.5 7.69014 25.7C11.0501 29.7 15.0101 32.78 19.5701 34.94C22.1301 36.14 24.3701 36.82 26.2901 36.98H26.7701C28.5301 36.98 29.9701 36.34 31.0901 35.06H31.2101C31.4501 34.74 31.8501 34.3 32.4101 33.74L33.4901 32.66C34.2901 31.86 34.6901 30.98 34.6901 30.02C34.6901 29.06 34.2901 28.22 33.4901 27.5L29.2901 23.3ZM32.0501 31.34L31.0901 32.18C30.4501 32.82 29.9701 33.34 29.6501 33.74C28.8501 34.54 27.8901 34.94 26.7701 34.94H26.4101C24.7301 34.86 22.7701 34.26 20.5301 33.14C16.2101 31.06 12.4501 28.14 9.25014 24.38C6.77014 21.34 4.97014 18.3 3.85014 15.26C3.13014 13.42 2.85014 11.82 3.01014 10.46C3.09014 9.57998 3.41014 8.85998 3.97014 8.29998L6.61014 5.65998C7.01014 5.25998 7.39014 5.05998 7.75014 5.05998C8.11014 5.05998 8.49014 5.25998 8.89014 5.65998L13.0901 9.85998C13.8101 10.66 13.8101 11.42 13.0901 12.14L12.3701 12.86C11.6501 13.66 11.0101 14.26 10.4501 14.66V14.78C9.97014 15.26 9.85014 15.82 10.0901 16.46V16.58C10.5701 17.78 11.3701 19.1 12.4901 20.54C14.5701 23.1 16.8501 25.14 19.3301 26.66L21.0101 27.62C21.3301 27.78 21.6501 27.86 21.9701 27.86C22.2901 27.86 22.6101 27.66 22.9301 27.26L25.5701 24.74C25.9701 24.34 26.3501 24.14 26.7101 24.14C27.0701 24.14 27.4501 24.34 27.8501 24.74L32.0501 28.94C32.7701 29.66 32.7701 30.46 32.0501 31.34ZM20.2901 9.49998C22.2901 9.89998 24.0301 10.82 25.5101 12.26C26.9901 13.7 27.8901 15.46 28.2101 17.54C28.2901 17.78 28.4301 17.98 28.6301 18.14C28.8301 18.3 29.0501 18.38 29.2901 18.38H29.4101C29.7301 18.3 29.9701 18.14 30.1301 17.9C30.2901 17.66 30.3301 17.42 30.2501 17.18C29.8501 14.7 28.7701 12.58 27.0101 10.82C25.2501 9.05998 23.1301 7.97998 20.6501 7.57998C20.4101 7.49998 20.1701 7.53998 19.9301 7.69998C19.6901 7.85998 19.5501 8.07998 19.5101 8.35998C19.4701 8.63998 19.5301 8.89998 19.6901 9.13998C19.8501 9.37998 20.0501 9.49998 20.2901 9.49998ZM36.8501 16.82C36.1301 12.82 34.3101 9.35998 31.3901 6.43998C28.4701 3.51998 24.9701 1.69998 20.8901 0.97998C20.6501 0.97998 20.4101 1.05998 20.1701 1.21998C19.9301 1.37998 19.7901 1.59998 19.7501 1.87998C19.7101 2.15998 19.7701 2.39998 19.9301 2.59998C20.0901 2.79998 20.3301 2.93998 20.6501 3.01998C24.2501 3.65998 27.3501 5.27998 29.9501 7.87998C32.5501 10.48 34.1701 13.58 34.8101 17.18C34.8101 17.42 34.9101 17.62 35.1101 17.78C35.3101 17.94 35.5301 18.02 35.7701 18.02H36.0101C36.2501 18.02 36.4501 17.9 36.6101 17.66C36.7701 17.42 36.8501 17.14 36.8501 16.82Z" fill="#1363DF"/>
</svg>
