<svg width="39" height="42" viewBox="0 0 39 42" fill="none" xmlns="http://www.w3.org/2000/svg">
<path id="Vector" d="M19.6466 16.4466C18.3755 16.4466 17.2755 16.9111 16.3466 17.8399C15.4177 18.7688 14.9533 19.8688 14.9533 21.1399C14.9533 22.4111 15.4177 23.5111 16.3466 24.4399C17.2755 25.3688 18.3755 25.8333 19.6466 25.8333C20.9177 25.8333 22.0177 25.3688 22.9466 24.4399C23.8755 23.5111 24.34 22.4111 24.34 21.1399C24.34 19.8688 23.8755 18.7688 22.9466 17.8399C22.0177 16.9111 20.9177 16.4466 19.6466 16.4466ZM19.6466 24.6599C18.6688 24.6599 17.8377 24.3177 17.1533 23.6333C16.4688 22.9488 16.1266 22.1177 16.1266 21.1399C16.1266 20.1622 16.4688 19.3311 17.1533 18.6466C17.8377 17.9622 18.6688 17.6199 19.6466 17.6199C20.6244 17.6199 21.4555 17.9622 22.14 18.6466C22.8244 19.3311 23.1666 20.1622 23.1666 21.1399C23.1666 22.1177 22.8244 22.9488 22.14 23.6333C21.4555 24.3177 20.6244 24.6599 19.6466 24.6599ZM21.7 20.5533C21.5044 20.5533 21.3577 20.6022 21.26 20.6999C21.1622 20.7977 21.1133 20.9444 21.1133 21.1399C21.1133 21.7266 20.8688 22.1666 20.38 22.4599C20.2822 22.4599 20.2088 22.5577 20.16 22.7533C20.1111 22.9488 20.1111 23.1199 20.16 23.2666C20.2088 23.4133 20.3311 23.5111 20.5266 23.5599C20.7222 23.6088 20.8688 23.5844 20.9666 23.4866C21.3577 23.1933 21.6755 22.8511 21.92 22.4599C22.1644 22.0688 22.2866 21.6288 22.2866 21.1399C22.2866 20.9444 22.2377 20.7977 22.14 20.6999C22.0422 20.6022 21.8955 20.5533 21.7 20.5533ZM35.1933 19.6733C35.3888 19.7711 35.6333 19.8199 35.9266 19.8199C36.4155 19.8199 36.88 19.6733 37.32 19.3799C37.76 19.0866 38.0777 18.6955 38.2733 18.2066C38.4688 17.7177 38.5177 17.2044 38.42 16.6666C38.3222 16.1288 38.0777 15.6644 37.6866 15.2733L37.54 15.1266C38.0288 13.4644 37.9311 12.0466 37.2466 10.8733C36.5622 9.69995 35.3155 8.91772 33.5066 8.52661C31.6977 8.1355 29.4733 8.18439 26.8333 8.67328C25.9533 6.13106 24.9022 4.1755 23.68 2.80661C22.4577 1.43773 21.1133 0.753281 19.6466 0.753281C18.18 0.753281 16.8355 1.43773 15.6133 2.80661C14.3911 4.1755 13.34 6.13106 12.46 8.67328C9.81996 8.18439 7.59551 8.1355 5.78662 8.52661C3.97773 8.91772 2.73107 9.69995 2.04662 10.8733C1.36218 12.0466 1.21551 13.4644 1.60662 15.1266C1.11773 15.5177 0.799956 16.0066 0.653289 16.5933C0.506623 17.1799 0.579956 17.7666 0.873289 18.3533C1.16662 18.9399 1.63107 19.3555 2.26662 19.5999C2.90218 19.8444 3.51329 19.8688 4.09996 19.6733L5.27329 21.1399C3.51329 23.0955 2.33996 24.9777 1.75329 26.7866C1.16662 28.5955 1.2644 30.0866 2.04662 31.2599C3.0244 33.1177 5.12662 34.0466 8.35329 34.0466C9.72218 34.0466 11.0911 33.8999 12.46 33.6066C13.34 36.1488 14.3911 38.1044 15.6133 39.4733C16.8355 40.8422 18.1311 41.5266 19.5 41.5266C20.8688 41.5266 22.1888 40.9399 23.46 39.7666C24.0466 39.9622 24.6333 39.9866 25.22 39.8399C25.8066 39.6933 26.2955 39.3511 26.6866 38.8133C27.0777 38.2755 27.2244 37.6888 27.1266 37.0533C27.0288 36.4177 26.7844 35.8555 26.3933 35.3666H26.2466L26.8333 33.6066C28.2022 33.8999 29.5711 34.0466 30.94 34.0466C34.1666 34.0466 36.2688 33.1177 37.2466 31.2599C38.0288 30.0866 38.1266 28.5955 37.54 26.7866C36.9533 24.9777 35.78 23.0955 34.02 21.1399L35.1933 19.6733ZM36.9533 18.2066C36.66 18.4999 36.2933 18.6466 35.8533 18.6466C35.4133 18.6466 35.0955 18.4999 34.9 18.2066C34.6066 17.9133 34.46 17.5711 34.46 17.1799C34.46 16.7888 34.5822 16.4466 34.8266 16.1533C35.0711 15.8599 35.4133 15.7133 35.8533 15.7133C36.2933 15.7133 36.66 15.8599 36.9533 16.1533C37.2466 16.4466 37.3933 16.7888 37.3933 17.1799C37.3933 17.5711 37.2466 17.9133 36.9533 18.2066ZM36.22 11.6066C36.7088 12.3888 36.8066 13.3666 36.5133 14.5399C35.9266 14.4422 35.3644 14.5155 34.8266 14.7599C34.2888 15.0044 33.8733 15.3711 33.58 15.8599C33.2866 16.3488 33.1644 16.8866 33.2133 17.4733C33.2622 18.0599 33.5311 18.5977 34.02 19.0866L33.2866 20.2599C31.82 18.6955 30.2066 17.2777 28.4466 16.0066C28.2511 13.9533 27.86 11.8999 27.2733 9.84661C29.5222 9.35772 31.4288 9.28439 32.9933 9.62661C34.5577 9.96883 35.6333 10.6288 36.22 11.6066ZM26.1 32.1399C24.34 31.7488 22.6777 31.2599 21.1133 30.6733C22.1888 30.0866 23.2155 29.5244 24.1933 28.9866C25.1711 28.4488 26.1488 27.8377 27.1266 27.1533C26.8333 28.8155 26.4911 30.4777 26.1 32.1399ZM13.1933 32.1399C12.8022 30.4777 12.46 28.8155 12.1666 27.1533C13.1444 27.8377 14.1222 28.4488 15.1 28.9866C16.0777 29.5244 17.1044 30.0866 18.18 30.6733C16.6155 31.2599 14.9533 31.7488 13.1933 32.1399ZM13.1933 10.1399C14.9533 10.5311 16.6155 11.0199 18.18 11.6066C17.1044 12.1933 16.0777 12.7555 15.1 13.2933C14.1222 13.8311 13.1444 14.4422 12.1666 15.1266C12.46 13.4644 12.8022 11.8022 13.1933 10.1399ZM10.7 24.6599C9.33107 23.5844 8.05996 22.4111 6.88662 21.1399C8.05996 19.8688 9.33107 18.6955 10.7 17.6199C10.6022 18.7933 10.5533 19.9666 10.5533 21.1399C10.5533 22.3133 10.6022 23.4866 10.7 24.6599ZM15.6866 27.8866C14.4155 27.2022 13.1933 26.4199 12.02 25.5399C11.8244 24.0733 11.7266 22.6066 11.7266 21.1399C11.7266 19.6733 11.8244 18.2066 12.02 16.7399C13.1933 15.8599 14.4155 15.0533 15.6866 14.3199C16.9577 13.5866 18.2777 12.9266 19.6466 12.3399C21.0155 12.9266 22.3355 13.5866 23.6066 14.3199C24.8777 15.0533 26.1 15.8599 27.2733 16.7399C27.4688 18.2066 27.5666 19.6733 27.5666 21.1399C27.5666 22.6066 27.4688 24.0733 27.2733 25.5399C26.1 26.4199 24.8777 27.2266 23.6066 27.9599C22.3355 28.6933 21.0155 29.3533 19.6466 29.9399C18.2777 29.3533 16.9577 28.6688 15.6866 27.8866ZM26.1 10.1399C26.4911 11.7044 26.8333 13.3666 27.1266 15.1266C26.1488 14.4422 25.1711 13.8311 24.1933 13.2933C23.2155 12.7555 22.1888 12.1933 21.1133 11.6066C22.6777 11.0199 24.34 10.5311 26.1 10.1399ZM28.5933 17.6199C29.9622 18.6955 31.2333 19.8688 32.4066 21.1399C31.2333 22.4111 29.9622 23.5844 28.5933 24.6599C28.6911 23.4866 28.74 22.3133 28.74 21.1399C28.74 19.9666 28.6911 18.7933 28.5933 17.6199ZM19.6466 1.92661C20.82 1.92661 21.92 2.53772 22.9466 3.75994C23.9733 4.98217 24.8777 6.71772 25.66 8.96661C23.6066 9.4555 21.6022 10.1399 19.6466 11.0199C17.6911 10.1399 15.6866 9.4555 13.6333 8.96661C14.4155 6.71772 15.32 4.98217 16.3466 3.75994C17.3733 2.53772 18.4733 1.92661 19.6466 1.92661ZM2.19329 18.2066C1.99773 17.9133 1.87551 17.5955 1.82662 17.2533C1.77773 16.9111 1.85107 16.5933 2.04662 16.2999C2.24218 16.0066 2.51107 15.8111 2.85329 15.7133C3.19551 15.6155 3.53773 15.6399 3.87996 15.7866C4.22218 15.9333 4.46662 16.1533 4.61329 16.4466C4.75996 16.7399 4.80884 17.0577 4.75996 17.3999C4.71107 17.7422 4.53996 18.0355 4.24662 18.2799C3.95329 18.5244 3.61107 18.6466 3.21996 18.6466C2.82884 18.6466 2.48662 18.4999 2.19329 18.2066ZM5.12662 15.2733C4.44218 14.5888 3.65996 14.3444 2.77996 14.5399C2.48662 13.3666 2.60884 12.3399 3.14662 11.4599C3.6844 10.5799 4.73551 9.96883 6.29996 9.62661C7.8644 9.28439 9.77107 9.35772 12.02 9.84661C11.4333 11.8999 11.0422 13.9533 10.8466 16.0066C9.08662 17.2777 7.47329 18.6955 6.00662 20.2599L5.12662 19.0866C5.71329 18.4999 6.00662 17.8399 6.00662 17.1066C6.00662 16.3733 5.71329 15.7622 5.12662 15.2733ZM3.07329 30.6733C2.48662 29.6955 2.46218 28.4488 2.99996 26.9333C3.53773 25.4177 4.53996 23.7799 6.00662 22.0199C7.47329 23.5844 9.08662 25.0022 10.8466 26.2733C11.0422 28.3266 11.4333 30.3799 12.02 32.4333C9.77107 32.9222 7.8644 32.9955 6.29996 32.6533C4.73551 32.3111 3.65996 31.6511 3.07329 30.6733ZM25.5133 38.2999C25.22 38.5933 24.9022 38.7644 24.56 38.8133C24.2177 38.8622 23.9 38.7888 23.6066 38.5933C23.3133 38.3977 23.1177 38.1288 23.02 37.7866C22.9222 37.4444 22.9466 37.1022 23.0933 36.7599C23.24 36.4177 23.46 36.1733 23.7533 36.0266C24.0466 35.8799 24.3644 35.8311 24.7066 35.8799C25.0488 35.9288 25.3422 36.0999 25.5866 36.3933C25.8311 36.6866 25.9533 37.0044 25.9533 37.3466C25.9533 37.6888 25.8066 38.0066 25.5133 38.2999ZM24.4866 34.6333C23.9977 34.6333 23.5333 34.7799 23.0933 35.0733C22.6533 35.3666 22.3111 35.7333 22.0666 36.1733C21.8222 36.6133 21.7488 37.1022 21.8466 37.6399C21.9444 38.1777 22.14 38.6422 22.4333 39.0333C21.5533 39.9133 20.5755 40.3533 19.5 40.3533C18.4244 40.3533 17.3733 39.7422 16.3466 38.5199C15.32 37.2977 14.4155 35.5622 13.6333 33.3133C15.6866 32.8244 17.6911 32.1399 19.6466 31.2599C21.6022 32.1399 23.6066 32.8244 25.66 33.3133L25.0733 34.7799C24.8777 34.6822 24.6822 34.6333 24.4866 34.6333ZM36.22 30.6733C35.6333 31.6511 34.5577 32.3111 32.9933 32.6533C31.4288 32.9955 29.5222 32.9222 27.2733 32.4333C27.86 30.3799 28.2511 28.3266 28.4466 26.2733C30.2066 25.0022 31.82 23.5844 33.2866 22.0199C34.7533 23.7799 35.7555 25.4177 36.2933 26.9333C36.8311 28.4488 36.8066 29.6955 36.22 30.6733Z" fill="#1363DF"/>
</svg>
