<svg width="16" height="16" viewBox="0 0 16 16" fill="none" xmlns="http://www.w3.org/2000/svg">
<path id="Vector" d="M7.94997 0.819726C6.63441 0.819726 5.42553 1.13973 4.3233 1.77973C3.22108 2.41973 2.34997 3.29084 1.70997 4.39306C1.06997 5.49528 0.749969 6.69528 0.749969 7.99306C0.749969 9.29084 1.06997 10.4908 1.70997 11.5931C2.34997 12.6953 3.22108 13.5753 4.3233 14.2331C5.42553 14.8908 6.63441 15.2197 7.94997 15.2197C9.26552 15.2197 10.4744 14.8908 11.5766 14.2331C12.6789 13.5753 13.55 12.6953 14.19 11.5931C14.83 10.4908 15.15 9.29084 15.15 7.99306C15.15 6.69528 14.83 5.49528 14.19 4.39306C13.55 3.29084 12.6789 2.41973 11.5766 1.77973C10.4744 1.13973 9.26552 0.819726 7.94997 0.819726ZM7.94997 1.77973C9.08775 1.77973 10.1366 2.05528 11.0966 2.60639C12.0566 3.1575 12.8122 3.91306 13.3633 4.87306C13.9144 5.83306 14.19 6.87306 14.19 7.99306C14.19 9.11306 13.9144 10.1531 13.3633 11.1131C12.8122 12.0731 12.0566 12.8375 11.0966 13.4064C10.1366 13.9753 9.08775 14.2597 7.94997 14.2597C6.81219 14.2597 5.7633 13.9753 4.8033 13.4064C3.8433 12.8375 3.08775 12.0731 2.53664 11.1131C1.98553 10.1531 1.70997 9.11306 1.70997 7.99306C1.70997 6.87306 1.98553 5.83306 2.53664 4.87306C3.08775 3.91306 3.8433 3.1575 4.8033 2.60639C5.7633 2.05528 6.81219 1.77973 7.94997 1.77973ZM6.98997 4.65973V8.71306C6.98997 8.81973 7.02553 8.9175 7.09664 9.00639C7.16775 9.09528 7.25664 9.1575 7.3633 9.19306L10.0833 9.93973C10.2255 9.97528 10.35 9.9575 10.4566 9.88639C10.5633 9.81528 10.6344 9.7175 10.67 9.59306C10.7055 9.46862 10.6966 9.35306 10.6433 9.24639C10.59 9.13973 10.4922 9.06862 10.35 9.03306L7.94997 8.33973V4.65973C7.94997 4.5175 7.90553 4.40195 7.81664 4.31306C7.72775 4.22417 7.61219 4.17973 7.46997 4.17973C7.32775 4.17973 7.21219 4.22417 7.1233 4.31306C7.03441 4.40195 6.98997 4.5175 6.98997 4.65973Z" fill="#39557E"/>
</svg>
