<svg width="17" height="14" viewBox="0 0 17 14" fill="none" xmlns="http://www.w3.org/2000/svg">
<path id="Vector" d="M8.62997 7.23312C9.16331 6.91313 9.58997 6.48646 9.90998 5.95312C10.23 5.41979 10.39 4.84201 10.39 4.21979C10.39 3.59757 10.23 3.01979 9.90998 2.48646C9.58997 1.95312 9.16331 1.52646 8.62997 1.20646C8.09664 0.886458 7.51886 0.726458 6.89664 0.726458C6.27442 0.726458 5.69664 0.886458 5.16331 1.20646C4.62997 1.52646 4.20331 1.95312 3.88331 2.48646C3.56331 3.01979 3.40331 3.59757 3.40331 4.21979C3.40331 4.84201 3.56331 5.41979 3.88331 5.95312C4.20331 6.48646 4.62997 6.91313 5.16331 7.23312C3.84775 7.55312 2.76331 8.22868 1.90997 9.25979C1.05664 10.2909 0.629974 11.4465 0.629974 12.7265V13.5798C0.629974 13.6865 0.66553 13.7753 0.736641 13.8465C0.807752 13.9176 0.887752 13.9531 0.976641 13.9531C1.06553 13.9531 1.14553 13.9176 1.21664 13.8465C1.28775 13.7753 1.32331 13.6865 1.32331 13.5798V12.7265C1.32331 11.8376 1.5722 11.002 2.06997 10.2198C2.56775 9.43757 3.24331 8.82424 4.09664 8.37979C4.94997 7.93535 5.88331 7.71312 6.89664 7.71312C7.90997 7.71312 8.84331 7.93535 9.69664 8.37979C10.55 8.82424 11.2255 9.43757 11.7233 10.2198C12.2211 11.002 12.47 11.8376 12.47 12.7265V13.5798C12.47 13.6865 12.5055 13.7753 12.5766 13.8465C12.6478 13.9176 12.7278 13.9531 12.8166 13.9531C12.9055 13.9531 12.9855 13.9176 13.0566 13.8465C13.1278 13.7753 13.1633 13.6865 13.1633 13.5798V12.7265C13.1633 11.4465 12.7366 10.2909 11.8833 9.25979C11.03 8.22868 9.94553 7.55312 8.62997 7.23312ZM4.09664 4.19312C4.09664 3.44646 4.3722 2.79757 4.92331 2.24646C5.47442 1.69535 6.1322 1.41979 6.89664 1.41979C7.66109 1.41979 8.31886 1.69535 8.86997 2.24646C9.42109 2.79757 9.69664 3.45535 9.69664 4.21979C9.69664 4.98424 9.42109 5.63312 8.86997 6.16646C8.31886 6.69979 7.66109 6.96646 6.89664 6.96646C6.1322 6.96646 5.47442 6.69979 4.92331 6.16646C4.3722 5.63312 4.09664 4.97535 4.09664 4.19312ZM13.27 7.23312C13.6611 6.98424 13.9722 6.65535 14.2033 6.24646C14.4344 5.83757 14.55 5.38424 14.55 4.88646C14.55 4.13979 14.2744 3.4909 13.7233 2.93979C13.1722 2.38868 12.5233 2.11312 11.7766 2.11312C11.67 2.11312 11.5811 2.14868 11.51 2.21979C11.4389 2.2909 11.4033 2.3709 11.4033 2.45979C11.4033 2.54868 11.4389 2.62868 11.51 2.69979C11.5811 2.7709 11.67 2.80646 11.7766 2.80646C12.3455 2.80646 12.8344 3.0109 13.2433 3.41979C13.6522 3.82868 13.8566 4.32646 13.8566 4.91313C13.8566 5.49979 13.6522 5.98868 13.2433 6.37979C12.8344 6.7709 12.3455 6.96646 11.7766 6.96646C11.67 6.96646 11.5811 7.00201 11.51 7.07312C11.4389 7.14424 11.4033 7.23312 11.4033 7.33979C11.4033 7.44646 11.4389 7.53535 11.51 7.60646C11.5811 7.67757 11.67 7.71312 11.7766 7.71312C12.5233 7.71312 13.2166 7.88201 13.8566 8.21979C14.4966 8.55757 15.0033 9.01979 15.3766 9.60646C15.75 10.1931 15.9366 10.842 15.9366 11.5531V12.1931C15.9366 12.2998 15.9722 12.3887 16.0433 12.4598C16.1144 12.5309 16.1944 12.5665 16.2833 12.5665C16.3722 12.5665 16.4522 12.5309 16.5233 12.4598C16.5944 12.3887 16.63 12.2998 16.63 12.1931V11.5531C16.63 10.5576 16.3189 9.65979 15.6966 8.85979C15.0744 8.05979 14.2655 7.51757 13.27 7.23312Z" fill="#39557E"/>
</svg>
