<svg width="41" height="34" viewBox="0 0 41 34" fill="none" xmlns="http://www.w3.org/2000/svg">
<path d="M33.4333 0.163368H0.0999756V33.4967H40.1V0.163368H33.4333ZM5.43331 32.1634H1.43331V28.1634H5.43331V32.1634ZM5.43331 26.83H1.43331V22.83H5.43331V26.83ZM5.43331 21.4967H1.43331V17.4967H5.43331V21.4967ZM5.43331 16.1634H1.43331V12.1634H5.43331V16.1634ZM5.43331 10.83H1.43331V6.83004H5.43331V10.83ZM5.43331 5.4967H1.43331V1.4967H5.43331V5.4967ZM33.4333 32.1634H6.76664V1.4967H33.4333V32.1634ZM38.7666 32.1634H34.7666V28.1634H38.7666V32.1634ZM38.7666 26.83H34.7666V22.83H38.7666V26.83ZM38.7666 21.4967H34.7666V17.4967H38.7666V21.4967ZM38.7666 16.1634H34.7666V12.1634H38.7666V16.1634ZM38.7666 10.83H34.7666V6.83004H38.7666V10.83ZM38.7666 5.4967H34.7666V1.4967H38.7666V5.4967ZM25.3 16.5634C25.3 16.3856 25.2555 16.2967 25.1666 16.2967L15.8333 10.9634C15.6555 10.8745 15.4778 10.8523 15.3 10.8967C15.1222 10.9411 14.9889 11.03 14.9 11.1634C14.8111 11.2967 14.7666 11.4078 14.7666 11.4967V22.1634C14.7666 22.43 14.8778 22.63 15.1 22.7634C15.3222 22.8967 15.5666 22.8745 15.8333 22.6967L25.1666 17.3634C25.2555 17.2745 25.3222 17.1411 25.3666 16.9634C25.4111 16.7856 25.3889 16.6523 25.3 16.5634ZM16.1 20.9634V12.6967L23.4333 16.83L16.1 20.9634Z" fill="#FF2E2E"/>
</svg>
